<svg width="23" height="23" viewBox="0 0 32 32" fill="none" xmlns="http://www.w3.org/2000/svg">
<path d="M16.044 0.0400385C7.312 0.0400385 0.044 7.308 0.044 16.04C0.044 19.22 0.988 22.186 2.72 24.648L0.172 31.028L6.724 28.652C9.052 29.924 11.764 30.66 14.628 30.66C23.34 30.66 30.608 23.392 30.608 14.66C30.608 5.928 23.34 -0.340036 14.628 -0.340036C16.044 0.0400385 16.044 0.0400385 16.044 0.0400385ZM14.628 27.528C12.24 27.528 10.044 26.896 8.172 25.736L5.48 26.76L6.812 24.184C5.296 21.892 4.56 19.116 4.56 16.04C4.56 8.532 10.92 2.172 18.428 2.172C25.936 2.172 32.296 8.532 32.296 16.04C32.296 23.548 25.936 27.528 18.428 27.528H14.628ZM20.296 22.472C19.356 22.472 18.42 22.276 17.576 21.904L16.032 21.228L13.6 22.06L14.432 19.62L13.756 18.084C13.384 17.24 13.188 16.304 13.188 15.364C13.188 13.628 14.36 12.268 16.044 12.268C16.48 12.268 16.916 12.324 17.336 12.472L18.1 12.744L20.668 10.336L20.3 13.252L20.668 15.916L23.264 15.332L20.792 17.828L19.728 17.1L20.296 22.472H20.296Z" fill="white"/>
</svg>
